<svg width="64" height="64" viewBox="0 0 64 64" fill="none" xmlns="http://www.w3.org/2000/svg">
  <rect width="64" height="64" rx="16" fill="url(#bg)"/>
  <g filter="url(#shadow)">
    <ellipse cx="31" cy="34.5" rx="11.5" ry="8.5" fill="url(#bodyBottom)"/>
    <ellipse cx="31" cy="28" rx="12.5" ry="8.2" fill="url(#bodyTop)"/>
    <ellipse cx="36.4" cy="37.8" rx="8.6" ry="5.5" fill="#F59D0C" fill-opacity="0.2"/>
    <path d="M18.5 28.2C18.5 23.1185 22.6185 19 27.7 19H33.7C39.5178 19 44.4262 22.8581 45.9328 28.2H18.5Z" fill="url(#headRed)"/>
    <rect x="18.6" y="16.2" width="9.8" height="12.8" rx="4.9" fill="url(#hat)"/>
    <circle cx="28.5" cy="27.6" r="1.35" fill="#F6B018"/>
    <circle cx="39.7" cy="28.4" r="3.15" fill="#101828"/>
    <path d="M44.8 30.2L56.5 26.2V35.6L44.8 32.7V30.2Z" fill="url(#tail)"/>
  </g>
  <defs>
    <filter id="shadow" x="15" y="15" width="46" height="36" filterUnits="userSpaceOnUse" color-interpolation-filters="sRGB">
      <feDropShadow dx="2.5" dy="3" stdDeviation="2.4" flood-color="#0F172A" flood-opacity="0.22"/>
    </filter>
    <linearGradient id="bg" x1="6" y1="4" x2="56" y2="60" gradientUnits="userSpaceOnUse">
      <stop stop-color="#7CC6F1"/>
      <stop offset="1" stop-color="#4AB2EE"/>
    </linearGradient>
    <linearGradient id="bodyTop" x1="31" y1="19.8" x2="31" y2="36.2" gradientUnits="userSpaceOnUse">
      <stop stop-color="#EA4C4A"/>
      <stop offset="1" stop-color="#DC413E"/>
    </linearGradient>
    <linearGradient id="bodyBottom" x1="31" y1="26" x2="31" y2="43" gradientUnits="userSpaceOnUse">
      <stop stop-color="#F6AF19"/>
      <stop offset="1" stop-color="#F39A0B"/>
    </linearGradient>
    <linearGradient id="headRed" x1="32.2" y1="19" x2="32.2" y2="28.2" gradientUnits="userSpaceOnUse">
      <stop stop-color="#E94C49"/>
      <stop offset="1" stop-color="#D93D3A"/>
    </linearGradient>
    <linearGradient id="hat" x1="23.5" y1="16.2" x2="23.5" y2="29" gradientUnits="userSpaceOnUse">
      <stop stop-color="#23374B"/>
      <stop offset="1" stop-color="#101828"/>
    </linearGradient>
    <linearGradient id="tail" x1="50.65" y1="26.2" x2="50.65" y2="35.6" gradientUnits="userSpaceOnUse">
      <stop stop-color="#F5B11C"/>
      <stop offset="1" stop-color="#F08E14"/>
    </linearGradient>
  </defs>
</svg>
