<svg width="64" height="64" viewBox="0 0 64 64" fill="none" xmlns="http://www.w3.org/2000/svg">
  <rect width="64" height="64" rx="16" fill="url(#bg)"/>
  <rect x="10" y="10" width="44" height="44" rx="12" fill="#0F766E" fill-opacity="0.16" stroke="#FFFFFF" stroke-opacity="0.14"/>
  <path d="M21 21H31V31H41V41H21V21Z" fill="url(#piece)"/>
  <rect x="21" y="21" width="10" height="10" rx="2.8" fill="url(#pieceTop)"/>
  <rect x="21" y="31" width="10" height="10" rx="2.8" fill="url(#pieceMid)"/>
  <rect x="31" y="31" width="10" height="10" rx="2.8" fill="url(#pieceRight)"/>
  <path d="M21 31H41" stroke="#FFFFFF" stroke-opacity="0.22" stroke-width="1.2"/>
  <path d="M31 21V41" stroke="#FFFFFF" stroke-opacity="0.18" stroke-width="1.2"/>
  <circle cx="24.5" cy="24.5" r="1.7" fill="#FFFFFF" fill-opacity="0.35"/>
  <circle cx="24.5" cy="34.5" r="1.7" fill="#FFFFFF" fill-opacity="0.28"/>
  <circle cx="34.5" cy="34.5" r="1.7" fill="#FFFFFF" fill-opacity="0.28"/>
  <defs>
    <linearGradient id="bg" x1="8" y1="7" x2="58" y2="58" gradientUnits="userSpaceOnUse">
      <stop stop-color="#22D3EE"/>
      <stop offset="0.55" stop-color="#0F766E"/>
      <stop offset="1" stop-color="#1E3A8A"/>
    </linearGradient>
    <linearGradient id="piece" x1="21" y1="21" x2="41" y2="41" gradientUnits="userSpaceOnUse">
      <stop stop-color="#FDE68A"/>
      <stop offset="0.55" stop-color="#F59E0B"/>
      <stop offset="1" stop-color="#EA580C"/>
    </linearGradient>
    <linearGradient id="pieceTop" x1="21" y1="21" x2="31" y2="31" gradientUnits="userSpaceOnUse">
      <stop stop-color="#FDE68A"/>
      <stop offset="1" stop-color="#FBBF24"/>
    </linearGradient>
    <linearGradient id="pieceMid" x1="21" y1="31" x2="31" y2="41" gradientUnits="userSpaceOnUse">
      <stop stop-color="#FDBA74"/>
      <stop offset="1" stop-color="#F59E0B"/>
    </linearGradient>
    <linearGradient id="pieceRight" x1="31" y1="31" x2="41" y2="41" gradientUnits="userSpaceOnUse">
      <stop stop-color="#FB923C"/>
      <stop offset="1" stop-color="#EA580C"/>
    </linearGradient>
  </defs>
</svg>
