<svg width="64" height="64" viewBox="0 0 640 640" fill="none" xmlns="http://www.w3.org/2000/svg">
  <defs>
    <linearGradient id="bg" x1="96" y1="64" x2="544" y2="576" gradientUnits="userSpaceOnUse">
      <stop stop-color="#0B3954"/>
      <stop offset="0.52" stop-color="#115E59"/>
      <stop offset="1" stop-color="#7F1D1D"/>
    </linearGradient>
    <radialGradient id="glow" cx="0" cy="0" r="1" gradientUnits="userSpaceOnUse" gradientTransform="translate(320 168) rotate(90) scale(150 150)">
      <stop stop-color="#FDE68A"/>
      <stop offset="0.4" stop-color="#FB923C" stop-opacity="0.95"/>
      <stop offset="0.75" stop-color="#DC2626" stop-opacity="0.55"/>
      <stop offset="1" stop-color="#DC2626" stop-opacity="0"/>
    </radialGradient>
    <radialGradient id="bombShade" cx="0" cy="0" r="1" gradientUnits="userSpaceOnUse" gradientTransform="translate(275 255) rotate(51.3) scale(250.53)">
      <stop stop-color="#6B7280"/>
      <stop offset="0.55" stop-color="#1F2937"/>
      <stop offset="1" stop-color="#030712"/>
    </radialGradient>
    <linearGradient id="ring" x1="268" y1="114" x2="372" y2="160" gradientUnits="userSpaceOnUse">
      <stop stop-color="#D1D5DB"/>
      <stop offset="1" stop-color="#6B7280"/>
    </linearGradient>
    <linearGradient id="fuse" x1="314" y1="80" x2="356" y2="186" gradientUnits="userSpaceOnUse">
      <stop stop-color="#F59E0B"/>
      <stop offset="1" stop-color="#92400E"/>
    </linearGradient>
    <filter id="shadow" x="123" y="110" width="394" height="426" filterUnits="userSpaceOnUse" color-interpolation-filters="sRGB">
      <feFlood flood-opacity="0" result="BackgroundImageFix"/>
      <feColorMatrix in="SourceAlpha" type="matrix" values="0 0 0 0 0 0 0 0 0 0 0 0 0 0 0 0 0 0 127 0" result="hardAlpha"/>
      <feOffset dy="18"/>
      <feGaussianBlur stdDeviation="24"/>
      <feComposite in2="hardAlpha" operator="out"/>
      <feColorMatrix type="matrix" values="0 0 0 0 0.02 0 0 0 0 0.05 0 0 0 0 0.12 0 0 0 0.42 0"/>
      <feBlend mode="normal" in2="BackgroundImageFix" result="effect1_dropShadow_1_1"/>
      <feBlend mode="normal" in="SourceGraphic" in2="effect1_dropShadow_1_1" result="shape"/>
    </filter>
  </defs>

  <rect width="640" height="640" rx="140" fill="url(#bg)"/>
  <rect width="640" height="640" rx="140" fill="url(#glow)"/>

  <circle cx="320" cy="520" r="120" fill="#0F172A" fill-opacity="0.18"/>

  <g filter="url(#shadow)">
    <path d="M282 145C282 125.118 298.118 109 318 109H360C379.882 109 396 125.118 396 145V162C396 171.941 387.941 180 378 180H300C290.059 180 282 171.941 282 162V145Z" fill="url(#ring)"/>
    <rect x="314" y="78" width="20" height="106" rx="10" transform="rotate(-14 314 78)" fill="url(#fuse)"/>
    <path d="M334 92C352.689 73.3113 383 73.3113 401.689 92L417.765 108.076C421.561 111.872 421.561 118.028 417.765 121.824L363.824 175.765C360.028 179.561 353.872 179.561 350.076 175.765L334 159.689C315.311 141 315.311 110.689 334 92Z" fill="#FDBA74"/>
    <path d="M339 97C354.925 81.0746 380.75 81.0746 396.676 97L406.584 106.908L353.092 160.4L343.184 150.492C327.259 134.567 327.259 108.741 339 97Z" fill="#FDE68A"/>
    <circle cx="320" cy="334" r="146" fill="url(#bombShade)"/>
    <circle cx="274" cy="282" r="34" fill="#F8FAFC" fill-opacity="0.16"/>
    <circle cx="362" cy="372" r="26" fill="#111827" fill-opacity="0.46"/>
    <circle cx="320" cy="334" r="38" fill="#EF4444" fill-opacity="0.96"/>
    <circle cx="320" cy="334" r="18" fill="#FCA5A5"/>
  </g>

  <g fill="#F8FAFC" fill-opacity="0.12">
    <circle cx="128" cy="134" r="10"/>
    <circle cx="494" cy="126" r="8"/>
    <circle cx="536" cy="196" r="6"/>
    <circle cx="102" cy="226" r="7"/>
  </g>
</svg>
