<svg width="64" height="64" viewBox="0 0 64 64" fill="none" xmlns="http://www.w3.org/2000/svg">
  <rect width="64" height="64" rx="16" fill="url(#bg)"/>
  <circle cx="32" cy="19" r="7" fill="#05070B"/>
  <path d="M26.5 31C26.5 27.9624 28.9624 25.5 32 25.5C35.0376 25.5 37.5 27.9624 37.5 31V34C37.5 35.933 39.067 37.5 41 37.5H23C24.933 37.5 26.5 35.933 26.5 34V31Z" fill="#05070B"/>
  <path d="M24 39H40C41.1046 39 42 39.8954 42 41V42.5H22V41C22 39.8954 22.8954 39 24 39Z" fill="#0B1220"/>
  <path d="M22 44H42C43.6569 44 45 45.3431 45 47V49H19V47C19 45.3431 20.3431 44 22 44Z" fill="#111827"/>
  <path d="M18 50.5C18 49.6716 18.6716 49 19.5 49H44.5C45.3284 49 46 49.6716 46 50.5V52H18V50.5Z" fill="#05070B"/>
  <path d="M29.5 16.5C30.2 15.6 31.2 15 32.3 15C34.4 15 36.1 16.7 36.1 18.8" stroke="#93C5FD" stroke-width="1.5" stroke-linecap="round" stroke-opacity="0.45"/>
  <defs>
    <linearGradient id="bg" x1="9" y1="5" x2="56" y2="60" gradientUnits="userSpaceOnUse">
      <stop stop-color="#7DD3FC"/>
      <stop offset="0.45" stop-color="#2563EB"/>
      <stop offset="1" stop-color="#102A5C"/>
    </linearGradient>
  </defs>
</svg>
