<svg width="64" height="64" viewBox="0 0 64 64" fill="none" xmlns="http://www.w3.org/2000/svg">
  <rect width="64" height="64" rx="16" fill="url(#bg)"/>
  <rect x="10" y="10" width="44" height="44" rx="12" fill="url(#panel)" stroke="#7DD3FC" stroke-opacity="0.18"/>
  <path d="M20 38H44L39 44H24L20 38Z" fill="url(#shipHull)"/>
  <rect x="27" y="24" width="4" height="14" rx="2" fill="#FFF8DC" fill-opacity="0.9"/>
  <path d="M31 25L39 28.5L31 32V25Z" fill="#FFF8DC"/>
  <path d="M18 47C21 44 24.5 42.5 28 42.5C31.5 42.5 35 44 38 47" stroke="#67E8F9" stroke-width="2" stroke-linecap="round"/>
  <path d="M32 47C35 44 38.5 42.5 42 42.5C45.5 42.5 49 44 52 47" stroke="#67E8F9" stroke-width="2" stroke-linecap="round" stroke-opacity="0.8"/>
  <defs>
    <linearGradient id="bg" x1="8" y1="6" x2="57" y2="60" gradientUnits="userSpaceOnUse">
      <stop stop-color="#183448"/>
      <stop offset="1" stop-color="#0F172A"/>
    </linearGradient>
    <linearGradient id="panel" x1="32" y1="10" x2="32" y2="54" gradientUnits="userSpaceOnUse">
      <stop stop-color="#39BDE8" stop-opacity="0.2"/>
      <stop offset="1" stop-color="#082F49" stop-opacity="0.34"/>
    </linearGradient>
    <linearGradient id="shipHull" x1="32" y1="24" x2="32" y2="44" gradientUnits="userSpaceOnUse">
      <stop stop-color="#F59E0B"/>
      <stop offset="1" stop-color="#78350F"/>
    </linearGradient>
  </defs>
</svg>
